# xmcd
#
# Track frame offsets: 
#        150
#        25838
#        51006
#        73249
#        99379
#        120617
#        146111
#        176375
#        213493
#        227465
#        263765
#        291959
#
# Disc length: 4469 seconds
#
# Revision: 0
# Processed by: cddbd v1.5.2PL0 Copyright (c) Steve Scherf et al.
# Submitted via: ExactAudioCopy v0.99pb3
#
DISCID=ad11730c
DTITLE=Tamela Mann - Live Experience (2007)
DYEAR=2007
DGENRE=
TTITLE0=Alright
TTITLE1=Gotta Keep Movin
TTITLE2=Hallelujah
TTITLE3=Speak Lord
TTITLE4=Speak Lord/I Need You Now (Reprise)
TTITLE5=Safety In His Arms
TTITLE6=You Deserve My Praise
TTITLE7=In Your Corner 
TTITLE8=In Your Corner (Featuring Myron Butler) (Reprise)
TTITLE9=Trust Him
TTITLE10=Marvelous (Featuring David A. Mann)
TTITLE11=Praise Medley
EXTD=
EXTT0=
EXTT1=
EXTT2=
EXTT3=
EXTT4=
EXTT5=
EXTT6=
EXTT7=
EXTT8=
EXTT9=
EXTT10=
EXTT11=
PLAYORDER=
